<?xml version="1.0" encoding="iso-8859-1"?>
<!-- Uploaded to: SVG Repo, www.svgrepo.com, Generator: SVG Repo Mixer Tools -->
<svg height="800px" width="800px" version="1.1" id="Layer_1" xmlns="http://www.w3.org/2000/svg" xmlns:xlink="http://www.w3.org/1999/xlink" 
	 viewBox="0 0 512 512" xml:space="preserve">
<g>
	<path style="fill:#D9A382;" d="M359.483,185.367c69.066-30.593,69.712,62.339,12.375,72.424L359.483,185.367z"/>
	<path style="fill:#D9A382;" d="M152.513,185.367c-69.066-30.593-69.712,62.339-12.375,72.424L152.513,185.367z"/>
</g>
<path style="fill:#A07CD1;" d="M316.467,394.523L316.467,394.523l-59.921,57.169l-59.93-57.552l-1.099,0.381
	c-45.098,15.808-77.439,58.749-77.439,109.245l0,0h275.839l0,0C393.917,453.266,361.57,410.329,316.467,394.523z"/>
<path style="fill:#F0BB9A;" d="M289.106,388.559v-60.263h-66.217v60.264c-9.104,0.853-17.906,2.742-26.273,5.58
	c1.281,32,27.616,57.552,59.93,57.552c32.186,0,58.446-25.348,59.921-57.169C307.775,391.478,298.605,389.451,289.106,388.559z"/>
<path style="fill:#D9A382;" d="M222.889,380.905c10.636,2.501,21.72,3.829,33.108,3.829c11.388,0,22.473-1.328,33.109-3.829v-52.608
	h-66.217V380.905z"/>
<path style="fill:#F0BB9A;" d="M255.998,35.678L255.998,35.678c-64.722,0-117.188,52.467-117.188,117.188V240.1
	c0,64.721,52.467,117.188,117.188,117.188l0,0c64.721,0,117.188-52.467,117.188-117.188v-87.234
	C373.185,88.145,320.719,35.678,255.998,35.678z"/>
<path style="fill:#2A2A33;" d="M255.998,248.336c-12.923,0-23.399,11.315-23.399,25.272c0,1.742,0.164,3.444,0.474,5.086
	l22.925,5.912l22.925-5.912c0.311-1.642,0.474-3.344,0.474-5.086C279.396,259.651,268.92,248.336,255.998,248.336z"/>
<path style="fill:#FF6465;" d="M255.998,298.88c11.309,0,20.745-8.667,22.925-20.187c-6.938-1.714-14.712-2.674-22.925-2.674
	c-8.213,0-15.987,0.961-22.925,2.674C235.252,290.214,244.688,298.88,255.998,298.88z"/>
<path style="fill:#C7CFE2;" d="M399.38,133.853C390.042,63.055,329.305,8.233,255.998,8.233S121.955,63.055,112.616,133.853H399.38z
	"/>
<path style="fill:#E1EAFF;" d="M272.465,9.17c-5.405-0.616-10.899-0.936-16.467-0.936c-73.307,0-134.044,54.822-143.382,125.619
	h32.933C154.178,68.432,206.697,16.658,272.465,9.17z"/>
<polyline style="fill:#C7CFE2;" points="112.616,133.853 256.542,164.262 399.38,133.853 "/>
<path style="fill:#AFB6C7;" d="M365.726,119.859H146.27c-26.218,0-47.471,21.253-47.471,47.471l0,0
	c0,26.218,21.254,47.471,47.471,47.471h219.456c26.218,0,47.471-21.254,47.471-47.471l0,0
	C413.197,141.112,391.944,119.859,365.726,119.859z"/>
<path style="fill:#FF6465;" d="M146.27,187.357c-11.043,0-20.027-8.984-20.027-20.027c0-11.044,8.984-20.028,20.027-20.028h219.458
	c11.044,0,20.027,8.984,20.027,20.028c0,11.043-8.984,20.027-20.027,20.027H146.27z"/>
<path d="M365.727,139.07H146.27c-15.583,0-28.26,12.677-28.26,28.261c0,15.583,12.677,28.26,28.26,28.26h162.059
	c4.547,0,8.233-3.686,8.233-8.233s-3.686-8.233-8.233-8.233h-162.06c-6.503,0-11.793-5.29-11.793-11.793s5.29-11.795,11.793-11.795
	h219.458c6.503,0,11.793,5.291,11.793,11.795s-5.29,11.793-11.793,11.793h-25.279c-4.547,0-8.233,3.686-8.233,8.233
	s3.686,8.233,8.233,8.233h25.279c15.583,0,28.26-12.677,28.26-28.26C393.987,151.747,381.309,139.07,365.727,139.07z"/>
<path d="M407.164,130.151C396.037,55.766,331.522,0,255.998,0c-18.589,0-36.778,3.324-54.064,9.88
	c-4.252,1.613-6.391,6.367-4.779,10.619c1.613,4.251,6.365,6.391,10.618,4.779c15.413-5.847,31.638-8.811,48.224-8.811
	c61.626,0,115.043,41.611,131.322,99.482c-5.851-2.46-12.128-3.902-18.612-4.242c-0.042-0.002-2.024-0.081-2.982-0.081H146.27
	c-7.385,0-14.766,1.455-21.577,4.315c8.591-30.429,27.706-57.299,54.226-75.537c3.747-2.576,4.695-7.703,2.119-11.449
	c-2.578-3.748-7.703-4.695-11.45-2.119c-35.02,24.083-58.503,61.623-64.752,103.308c-8.867,9.869-14.272,22.906-14.272,37.186
	c0,7.899,1.663,15.413,4.64,22.227c-5.985,11.499-6.234,26.733-0.411,41.038c6.942,17.054,20.69,29.177,38.19,33.988
	c8.7,43.784,40.26,79.428,81.674,93.928v22.776c-7.063,1.092-13.993,2.785-20.706,5.064c-0.012,0.004-0.024,0.007-0.035,0.01
	l-1.121,0.39c-49.614,17.391-82.948,64.416-82.948,117.015c0,4.547,3.686,8.233,8.233,8.233h275.839
	c4.547,0,8.233-3.686,8.233-8.233c0-52.6-33.339-99.624-82.959-117.014c-7.068-2.477-14.39-4.307-21.85-5.464v-22.775
	c15.17-5.296,29.301-13.501,41.559-24.307c3.411-3.007,3.739-8.21,0.732-11.62s-8.21-3.739-11.62-0.732
	c-12.418,10.947-27.048,18.823-42.744,23.197c-0.052,0.014-0.103,0.029-0.155,0.043c-7.187,2.013-14.572,3.197-22.014,3.7
	c-21.765,1.416-43.918-3.827-62.733-15.048c-15.973-9.525-29.415-23.143-38.731-39.24c-6.889-11.903-11.481-25.099-13.453-38.71
	c-0.752-5.191-1.135-10.452-1.135-15.698v-17.065h217.91v17.065c0,5.277-0.391,10.586-1.149,15.808
	c-2.204,15.127-7.562,29.629-15.82,42.605c-2.441,3.836-1.311,8.925,2.525,11.366s8.925,1.311,11.366-2.525
	c8.36-13.135,14.124-27.628,17.127-42.767c17.504-4.809,31.256-16.933,38.201-33.992c5.824-14.304,5.575-29.538-0.411-41.037
	c2.977-6.815,4.64-14.329,4.64-22.229C421.432,153.053,416.027,140.019,407.164,130.151z M308.636,435.825
	c7.203-8.49,12.277-18.796,14.607-29.685c35.257,16.277,59.144,50.559,62.125,89.393H126.627
	c3.009-39.209,27.329-73.782,63.128-89.858c2.439,11.827,8.187,23.085,16.302,32.016c12.808,14.097,31.47,22.234,50.49,22.234
	C276.452,459.926,295.756,451.007,308.636,435.825z M231.123,388.56v-25.514c8.181,1.641,16.53,2.476,24.875,2.476
	c8.335,0,16.703-0.83,24.875-2.476v25.512c0,4.25,3.233,7.8,7.464,8.197c6.535,0.614,12.98,1.816,19.234,3.585
	c-0.044,0.262-0.086,0.525-0.134,0.785c-3.178,17.379-15.85,32.65-32.369,38.93c-5.893,2.24-12.216,3.403-18.521,3.403
	c-17.929,0-35.27-9.767-44.467-25.174c-3.197-5.355-6.379-11.871-6.543-18.213c5.531-2.145,12.246-2.764,18.121-3.315
	C227.889,396.361,231.123,392.809,231.123,388.56z M110.044,224.387c-2.387-5.862-3.344-11.954-2.905-17.44
	c0.177,0.175,0.368,0.335,0.547,0.506c1.502,1.44,3.088,2.813,4.739,4.08c5.355,4.11,11.473,7.266,18.104,9.224
	c0.016,0.004,0.032,0.011,0.048,0.016V240.1c0,2.065,0.05,4.135,0.153,6.198C121.378,241.948,114.092,234.33,110.044,224.387z
	 M401.951,224.387c-4.049,9.944-11.333,17.561-20.683,21.912c0.154-0.071,0.081-2.226,0.088-2.438
	c0.04-1.253,0.065-2.506,0.065-3.76v-19.329c0.014-0.004,0.029-0.01,0.043-0.014c8.472-2.534,16.423-7.126,22.85-13.307
	c0.178-0.171,0.368-0.329,0.543-0.503C405.295,212.434,404.336,218.524,401.951,224.387z M398.299,189.104
	c-6.624,9.946-17.823,16.468-29.74,17.358c-0.942,0.07-1.887,0.106-2.832,0.106H146.27c-8.065,0-16.01-2.559-22.601-7.193
	c-10.011-7.039-16.267-18.667-16.62-30.896c-0.011-0.383-0.016-0.766-0.016-1.149c0-20.877,16.39-37.992,36.977-39.169
	c0.087-0.004,1.591-0.069,2.261-0.069h219.458c0.672,0,2.179,0.066,2.268,0.07c20.585,1.179,36.971,18.293,36.971,39.169
	C404.965,175.062,402.564,182.702,398.299,189.104z"/>
<path d="M224.365,273.608c0,2.219,0.207,4.443,0.617,6.612c0.001,0.008,0.004,0.015,0.005,0.023
	c2.954,15.571,15.994,26.872,31.011,26.872c15.021,0,28.064-11.306,31.013-26.884c0-0.001,0.001-0.003,0.001-0.006
	c0.409-2.165,0.618-4.391,0.618-6.616c0-18.475-14.19-33.505-31.631-33.505C238.556,240.102,224.365,255.133,224.365,273.608z
	 M255.998,290.647c-4.419,0-8.499-2.186-11.313-5.714c0.089-0.011,0.177-0.024,0.266-0.035c1.045-0.126,2.095-0.233,3.143-0.317
	c0.749-0.06,1.5-0.116,2.25-0.161c3.743-0.218,7.563-0.218,11.305,0c0.807,0.047,1.614,0.108,2.418,0.175
	c0.991,0.082,1.986,0.181,2.974,0.304c0.09,0.01,0.178,0.024,0.268,0.035C264.496,288.461,260.417,290.647,255.998,290.647z
	 M270.533,268.739c-0.239-0.032-0.484-0.054-0.725-0.085c-4.577-0.593-9.196-0.869-13.811-0.869c-4.613,0-9.23,0.285-13.806,0.869
	c-0.243,0.031-0.49,0.053-0.73,0.086c1.87-7.03,7.679-12.17,14.536-12.17C262.855,256.569,268.663,261.709,270.533,268.739z"/>
</svg>